# xmcd
#
# Track frame offsets:
#	150
#	15098
#	30497
#	51631
#	70084
#	83727
#	100432
#	119024
#	131109
#	151830
#	163612
#	177794
#
# Disc length: 2614 seconds
#
# Revision: 0
# Processed by: cddbd v1.5.1PL0 Copyright (c) Steve Scherf et al.
# Submitted via: dBpowerAMP V4.0
#
DISCID=960a340c
DTITLE=Micky and the Motorcars - Ain't In It For The Money
DYEAR=1900
DGENRE=
TTITLE0=Little Baby
TTITLE1=Follow You Down
TTITLE2=July, You're A Woman
TTITLE3=Other Side Of Town
TTITLE4=Baby Tonight
TTITLE5=Million Miles
TTITLE6=Miserable Year
TTITLE7=Wasted Time
TTITLE8=Goodbye Lady
TTITLE9=Ain't In It For The Money
TTITLE10=Pointless Love
TTITLE11=Holdin' On, Long Gone
EXTD=
EXTT0=
EXTT1=
EXTT2=
EXTT3=
EXTT4=
EXTT5=
EXTT6=
EXTT7=
EXTT8=
EXTT9=
EXTT10=
EXTT11=
PLAYORDER=
